<?xml version="1.0" standalone="no"?>
<!DOCTYPE svg PUBLIC "-//W3C//DTD SVG 20010904//EN"
 "http://www.w3.org/TR/2001/REC-SVG-20010904/DTD/svg10.dtd">
<svg version="1.0" xmlns="http://www.w3.org/2000/svg"
 width="900.000000pt" height="900.000000pt" viewBox="0 0 900.000000 900.000000"
 preserveAspectRatio="xMidYMid meet">
<metadata>
Created by potrace 1.14, written by Peter Selinger 2001-2017
</metadata>
<g transform="translate(0.000000,900.000000) scale(0.100000,-0.100000)"
fill="#000000" stroke="none">
<path d="M3624 6513 c2 -16 8 -50 11 -78 4 -27 8 -63 10 -80 3 -16 7 -52 10
-80 8 -79 16 -115 26 -115 5 0 9 -5 9 -11 0 -5 18 -37 40 -70 23 -32 37 -59
33 -59 -4 0 -3 -4 2 -8 6 -4 15 -16 21 -27 31 -56 40 -71 49 -77 6 -4 6 -8 2
-8 -5 0 1 -13 12 -29 12 -16 21 -34 21 -40 0 -6 5 -11 10 -11 6 0 10 -7 10
-15 0 -8 5 -15 11 -15 5 0 8 -4 5 -9 -3 -5 1 -14 9 -21 8 -7 15 -18 15 -26 0
-7 7 -20 16 -28 8 -9 12 -16 7 -16 -4 0 -3 -4 2 -8 6 -4 21 -27 34 -52 13 -25
31 -53 39 -62 8 -10 11 -18 7 -18 -4 0 -1 -8 7 -17 8 -10 32 -49 54 -88 21
-38 42 -71 46 -73 4 -2 8 -9 8 -16 0 -7 8 -21 18 -32 18 -19 45 -19 1388 -18
1327 0 1370 1 1404 19 19 11 38 18 43 17 4 -1 7 3 7 9 0 5 4 8 9 4 5 -3 16 2
25 11 9 8 25 16 36 17 11 1 22 7 25 15 3 7 9 10 15 7 5 -3 10 -1 10 4 0 6 7
11 15 11 8 0 15 5 15 11 0 5 4 8 9 5 10 -6 61 16 61 27 0 4 9 7 20 7 11 0 23
7 26 15 4 8 10 12 16 9 5 -3 18 3 29 15 18 19 19 41 19 526 l0 505 -1861 0
-1861 0 6 -27z"/>
<path d="M2178 4537 l-1147 -1992 2311 -3 c1271 -1 2313 0 2315 2 2 2 -515
899 -1149 1995 -731 1263 -1158 1991 -1168 1991 -9 0 -442 -743 -1162 -1993z
m1274 222 c7 -16 17 -29 21 -29 5 0 6 -4 3 -9 -4 -5 -2 -11 3 -13 5 -1 11 -10
13 -18 3 -14 13 -29 35 -54 7 -8 9 -16 6 -20 -4 -3 -1 -6 5 -6 7 0 12 -9 12
-19 0 -11 3 -21 8 -23 16 -7 83 -129 76 -140 -4 -6 -3 -8 3 -5 10 6 38 -40 35
-55 -1 -5 2 -8 7 -8 5 0 14 -13 21 -30 7 -16 16 -30 21 -30 5 0 9 -9 9 -20 0
-11 4 -20 8 -20 4 0 20 -22 35 -50 15 -27 24 -50 21 -50 -4 0 2 -8 12 -17 10
-10 20 -25 22 -33 2 -8 7 -17 10 -20 4 -3 13 -15 20 -27 6 -13 18 -33 25 -45
6 -13 17 -26 22 -30 7 -5 7 -8 0 -8 -6 0 -6 -3 0 -8 6 -4 53 -81 104 -172 52
-91 100 -173 109 -182 8 -10 11 -18 6 -18 -5 0 -4 -4 1 -8 6 -4 18 -19 27 -34
13 -19 14 -27 5 -30 -25 -8 -1443 -1 -1456 6 -11 7 -10 11 3 18 9 5 16 16 16
23 0 8 4 15 9 15 5 0 11 8 15 18 3 9 15 32 26 50 11 17 17 32 14 32 -3 0 2 7
10 16 9 8 16 22 16 30 0 8 5 14 10 14 6 0 10 7 10 15 0 8 5 15 10 15 6 0 10 8
10 18 0 10 9 26 21 35 11 10 19 23 16 30 -2 7 2 17 9 22 7 6 14 17 16 25 3 15
13 30 38 57 8 9 15 21 16 27 1 6 11 27 23 46 12 19 24 43 27 53 4 9 11 17 16
17 5 0 8 5 6 12 -2 6 4 20 14 30 10 10 18 27 18 39 0 11 5 17 10 14 6 -3 10 4
10 16 0 12 3 19 7 16 6 -7 48 72 45 86 -1 4 5 7 15 7 9 0 14 3 10 6 -3 3 5 24
19 45 13 21 24 42 24 45 0 4 8 13 18 21 9 8 11 12 5 8 -7 -3 -13 -1 -13 4 0 6
4 11 9 11 5 0 13 9 16 20 4 11 11 18 16 14 5 -3 8 -2 7 3 -4 12 43 103 54 103
4 0 8 9 8 20 0 11 4 20 9 20 5 0 12 11 15 25 4 16 11 23 18 19 7 -4 8 -3 4 5
-4 6 0 18 8 27 9 9 14 19 11 24 -3 4 2 13 10 20 8 7 12 16 9 21 -3 5 2 6 10 3
8 -3 21 -19 28 -35z"/>
<path d="M4490 5008 c0 -12 -12 -54 -26 -94 l-25 -72 32 -53 c18 -30 38 -57
43 -61 6 -4 7 -8 2 -8 -5 0 -1 -9 9 -20 10 -11 14 -20 9 -20 -5 0 -2 -5 6 -10
8 -5 15 -13 16 -17 1 -17 28 -63 36 -63 4 0 7 -3 6 -7 -1 -5 14 -36 35 -71 20
-35 37 -67 37 -73 0 -5 5 -9 10 -9 6 0 10 -7 10 -15 0 -8 5 -15 10 -15 6 0 9
-3 8 -7 -3 -9 88 -170 110 -195 8 -10 12 -18 8 -18 -4 0 2 -13 13 -29 12 -16
21 -34 21 -40 0 -6 5 -11 11 -11 5 0 7 -4 4 -10 -3 -5 -1 -10 4 -10 6 0 11 -7
11 -15 0 -8 4 -15 8 -15 4 0 13 -13 19 -30 9 -23 18 -30 40 -31 15 0 465 0
998 0 870 0 1105 3 1170 16 11 2 64 4 118 4 l97 1 0 510 0 510 -1425 0 -1425
0 0 -22z"/>
<path d="M5186 3581 c-4 -5 1 -16 9 -24 8 -9 15 -18 15 -21 0 -5 62 -114 88
-156 9 -14 17 -29 17 -33 0 -4 6 -11 13 -16 7 -4 15 -18 17 -31 2 -13 8 -26
13 -29 5 -3 22 -31 38 -61 16 -30 31 -57 34 -60 3 -3 48 -79 99 -170 51 -91
98 -167 102 -168 5 -2 7 -8 3 -13 -3 -5 0 -9 5 -9 6 0 10 -3 9 -7 -3 -13 35
-82 42 -78 4 2 16 -5 28 -15 12 -11 25 -20 29 -20 5 0 15 -9 23 -20 8 -11 20
-20 27 -20 7 0 13 -4 13 -10 0 -5 17 -21 37 -35 21 -14 33 -25 28 -25 -5 0 -1
-6 10 -12 16 -10 177 -12 738 -10 l717 2 0 485 c0 316 -3 485 -10 486 -12 2
-20 4 -40 11 -8 3 -49 11 -90 18 -41 6 -102 16 -135 22 -33 5 -87 14 -120 18
-87 11 -1752 12 -1759 1z"/>
</g>
</svg>
